<?xml version="1.0" encoding="UTF-8" standalone="no"?>
<!DOCTYPE svg PUBLIC "-//W3C//DTD SVG 1.1//EN" "http://www.w3.org/Graphics/SVG/1.1/DTD/svg11.dtd">
<svg width="100%" height="100%" viewBox="0 0 213 236" version="1.1" xmlns="http://www.w3.org/2000/svg" xmlns:xlink="http://www.w3.org/1999/xlink" xml:space="preserve" xmlns:serif="http://www.serif.com/" style="fill:#ff69b4;fill-rule:evenodd;clip-rule:evenodd;stroke-linejoin:round;stroke-miterlimit:2;">
    <g transform="matrix(1,0,0,1,-714.72,-1023.12)">
        <path d="M822.52,1118.1C823.3,1112.53 820.638,1104.68 819.693,1099.24C816.544,1081.13 814.033,1063.09 800.411,1049.47C791.971,1041.03 782.086,1036.55 772.797,1037.87C766.56,1038.76 760.562,1042.26 755.429,1048.99C751.243,1054.49 749.337,1062.46 748.824,1071.03C748.068,1083.67 750.307,1097.61 752.37,1106.55C761.691,1146.94 784.139,1179.17 809.871,1210.62C817.977,1220.52 825.34,1231.56 834.413,1240.64C834.803,1241.03 835.437,1241.03 835.827,1240.64C836.218,1240.25 836.218,1239.61 835.827,1239.22C826.801,1230.19 819.483,1219.21 811.419,1209.35C785.884,1178.14 763.569,1146.18 754.319,1106.1C752.289,1097.3 750.076,1083.59 750.82,1071.15C751.307,1063.01 753.045,1055.42 757.02,1050.21C761.775,1043.96 767.301,1040.68 773.08,1039.85C781.815,1038.61 791.06,1042.95 798.996,1050.88C812.312,1064.2 814.644,1081.88 817.722,1099.59C818.637,1104.84 821.294,1112.43 820.54,1117.82C820.463,1118.37 820.845,1118.88 821.391,1118.95C821.938,1119.03 822.444,1118.65 822.52,1118.1Z"/>
        <path d="M823.883,1116.83C822.93,1116.19 822.622,1115.27 822.525,1114.28C822.403,1113.02 822.587,1111.64 822.587,1110.36C822.587,1101.58 826.082,1091.68 830.239,1084.06C836.95,1071.75 848.293,1058.22 861.398,1050.55C874.299,1042.99 888.93,1041.16 902.445,1052.1C906.672,1055.53 909.74,1059.5 911.639,1064.63C918.638,1083.53 911.686,1101.19 902.208,1117.63C882.578,1151.69 854.688,1180.84 843.947,1219.51C840.547,1231.74 837.333,1245.79 841.958,1258.13C842.152,1258.65 842.729,1258.91 843.246,1258.72C843.762,1258.52 844.025,1257.95 843.831,1257.43C839.353,1245.48 842.583,1231.89 845.874,1220.04C856.57,1181.54 884.394,1152.54 903.941,1118.63C913.716,1101.67 920.734,1083.43 913.514,1063.94C911.486,1058.46 908.218,1054.2 903.704,1050.55C889.44,1039 874.003,1040.85 860.387,1048.82C846.976,1056.67 835.351,1070.51 828.484,1083.1C824.176,1090.99 820.587,1101.27 820.587,1110.36C820.587,1111.71 820.406,1113.15 820.535,1114.47C820.689,1116.05 821.25,1117.47 822.765,1118.49C823.222,1118.8 823.844,1118.68 824.153,1118.22C824.462,1117.76 824.341,1117.14 823.883,1116.83Z"/>
        <path d="M819.451,1116.05C819.461,1115.93 819.503,1115.36 819.479,1114.9C819.373,1112.93 818.859,1109.97 818.859,1109.2C818.859,1100.37 818.648,1091.59 817.146,1082.88C813.471,1061.56 802.643,1043.58 783.645,1032.32C760.322,1018.5 731.518,1024.69 720.575,1050.28C710.479,1073.89 721.876,1102.41 734.888,1122.19C750.654,1146.15 769.801,1166.83 791.433,1185.62C813.09,1204.42 838.481,1222.23 846.45,1251.18C846.597,1251.71 846.284,1252.27 845.752,1252.41C845.219,1252.56 844.669,1252.24 844.522,1251.71C836.66,1223.14 811.489,1205.68 790.122,1187.13C768.351,1168.22 749.084,1147.4 733.217,1123.29C719.872,1103 708.381,1073.71 718.736,1049.49C730.181,1022.73 760.273,1016.14 784.664,1030.6C804.188,1042.17 815.34,1060.63 819.117,1082.54C820.639,1091.37 820.859,1100.25 820.859,1109.2C820.859,1109.96 821.373,1112.86 821.476,1114.79C821.513,1115.48 821.494,1116.07 821.414,1116.45C821.345,1116.78 821.221,1117.02 821.092,1117.18C820.746,1117.61 820.116,1117.68 819.686,1117.33C819.294,1117.02 819.203,1116.47 819.451,1116.05Z"/>
        <path d="M825.561,1114.45C822.035,1109.93 821.201,1104.41 821.992,1098.84C823.207,1090.27 828.237,1081.57 833.546,1075.91C839.849,1069.19 845.895,1062.06 853.795,1057.07C864.537,1050.28 879.228,1046.1 892.461,1047.31C905.52,1048.5 917.155,1054.98 921.994,1069.5C930.316,1094.46 919.179,1114.46 903.458,1133.33C882.76,1158.16 860.239,1180.46 846.309,1210.13C838.8,1226.13 834.755,1240.9 840.213,1258.37C840.377,1258.89 840.939,1259.19 841.465,1259.02C841.992,1258.86 842.286,1258.3 842.122,1257.77C836.826,1240.83 840.834,1226.5 848.119,1210.98C861.976,1181.46 884.407,1159.31 904.995,1134.61C921.174,1115.19 932.456,1094.56 923.891,1068.86C918.766,1053.49 906.476,1046.58 892.643,1045.32C878.983,1044.07 863.815,1048.37 852.726,1055.38C844.682,1060.46 838.506,1067.7 832.088,1074.54C826.529,1080.46 821.284,1089.59 820.012,1098.56C819.144,1104.67 820.113,1110.71 823.983,1115.68C824.323,1116.12 824.951,1116.19 825.387,1115.86C825.822,1115.52 825.9,1114.89 825.561,1114.45Z"/>
    </g>
</svg>
